<svg width="32" height="32" viewBox="0 0 32 32" xmlns="http://www.w3.org/2000/svg">
  <!-- Background gradient circle -->
  <defs>
    <linearGradient id="bg32" x1="0%" y1="0%" x2="100%" y2="100%">
      <stop offset="0%" style="stop-color:#667eea;stop-opacity:1" />
      <stop offset="100%" style="stop-color:#764ba2;stop-opacity:1" />
    </linearGradient>
    <filter id="shadow32">
      <feDropShadow dx="0" dy="1" stdDeviation="1" flood-color="rgba(0,0,0,0.2)"/>
    </filter>
  </defs>
  
  <!-- Shield outline -->
  <path d="M16 2 C12 2, 4 6, 4 12 C4 20, 12 28, 16 30 C20 28, 28 20, 28 12 C28 6, 20 2, 16 2 Z" 
        fill="none" stroke="rgba(255,255,255,0.6)" stroke-width="1" filter="url(#shadow32)"/>
  
  <!-- Main background circle -->
  <circle cx="16" cy="16" r="12" fill="url(#bg32)" stroke="rgba(255,255,255,0.3)" stroke-width="0.5"/>
  
  <!-- Clock face -->
  <circle cx="16" cy="16" r="9" fill="white" stroke="rgba(102,126,234,0.3)" stroke-width="1"/>
  
  <!-- Hour markers -->
  <circle cx="16" cy="8" r="0.8" fill="#667eea"/>
  <circle cx="24" cy="16" r="0.8" fill="#667eea"/>
  <circle cx="16" cy="24" r="0.8" fill="#667eea"/>
  <circle cx="8" cy="16" r="0.8" fill="#667eea"/>
  
  <!-- Clock hands pointing to time restriction -->
  <line x1="16" y1="16" x2="16" y2="9" stroke="#333" stroke-width="2" stroke-linecap="round"/>
  <line x1="16" y1="16" x2="21" y2="16" stroke="#333" stroke-width="1.5" stroke-linecap="round"/>
  
  <!-- Center dot -->
  <circle cx="16" cy="16" r="1.5" fill="#667eea"/>
</svg> 